name rise45.9887peak57.8056fall74.9286.mot
datacolumns 19
datarows 14
range 9.07997100000000 9.10163100000000
endheader
time	ground_force1_vx	ground_force1_vy	ground_force1_vz	ground_force1_px	ground_force1_py	ground_force1_pz	ground_force2_vx	ground_force2_vy	ground_force2_vz	ground_force2_px	ground_force2_py	ground_force2_pz	ground_torque1_x	ground_torque1_y	ground_torque1_z	ground_torque2_x	ground_torque2_y	ground_torque2_z	
9.07997100000000	-8.70090600000000	46.17196800000000	-12.94045400000000	0.33326000000000	0.00000000000000	0.06132400000000	-59.27736700000000	794.74396100000001	-57.01342800000000	0.12918000000000	0.00000000000000	-0.10875100000000	0.00000000000000	-9.49933100000000	0.00000000000000	0.00000000000000	-25.35334400000000	0.00000000000000	
9.08163700000000	-9.28302900000000	52.98262000000000	-14.29007100000000	0.33906900000000	0.00000000000000	0.06210900000000	-59.84074400000000	792.15897299999995	-56.58631000000000	0.12847400000000	0.00000000000000	-0.10864200000000	0.00000000000000	-10.58884000000000	0.00000000000000	0.00000000000000	-25.29021800000000	0.00000000000000	
9.08330200000000	-9.68517900000000	59.77954300000000	-15.49041800000000	0.34432100000000	0.00000000000000	0.06284300000000	-60.41327600000000	789.44250899999997	-56.13416200000000	0.12777000000000	0.00000000000000	-0.10852900000000	0.00000000000000	-11.58069700000000	0.00000000000000	0.00000000000000	-25.22665300000000	0.00000000000000	
9.08496800000000	-9.89477800000000	66.49701600000000	-16.52129600000000	0.34909400000000	0.00000000000000	0.06353300000000	-60.99448500000000	786.59250599999996	-55.65675700000000	0.12706800000000	0.00000000000000	-0.10841000000000	0.00000000000000	-12.45746200000000	0.00000000000000	0.00000000000000	-25.16258200000000	0.00000000000000	
9.08663300000000	-9.90814400000000	73.09336800000000	-17.37260100000000	0.35345000000000	0.00000000000000	0.06418600000000	-61.58380800000000	783.60688100000004	-55.15390100000000	0.12636800000000	0.00000000000000	-0.10828700000000	0.00000000000000	-13.20932600000000	0.00000000000000	0.00000000000000	-25.09792500000000	0.00000000000000	
9.08830500000000	-9.72963000000000	79.55065300000000	-18.04363800000000	0.35744400000000	0.00000000000000	0.06480500000000	-62.18059600000000	780.48353999999995	-54.62542800000000	0.12567000000000	0.00000000000000	-0.10815700000000	0.00000000000000	-13.83375100000000	0.00000000000000	0.00000000000000	-25.03258300000000	0.00000000000000	
9.08996400000000	-9.37024200000000	85.87243100000001	-18.54179200000000	0.36112000000000	0.00000000000000	0.06539500000000	-62.78411400000000	777.22038199999997	-54.07120800000000	0.12497400000000	0.00000000000000	-0.10802300000000	0.00000000000000	-14.33456500000000	0.00000000000000	0.00000000000000	-24.96644200000000	0.00000000000000	
9.09163300000000	-8.84596200000000	92.08015899999999	-18.88075800000000	0.36451500000000	0.00000000000000	0.06595800000000	-63.39353600000000	773.81530499999997	-53.49114600000000	0.12428100000000	0.00000000000000	-0.10788300000000	0.00000000000000	-14.72069000000000	0.00000000000000	0.00000000000000	-24.89937200000000	0.00000000000000	
9.09330300000000	-8.17593800000000	98.20872799999999	-19.07856300000000	0.36766100000000	0.00000000000000	0.06649800000000	-64.00794800000000	770.26620900000000	-52.88518800000000	0.12359000000000	0.00000000000000	-0.10773800000000	0.00000000000000	-15.00467300000000	0.00000000000000	0.00000000000000	-24.83122700000000	0.00000000000000	
9.09496900000000	-7.38074500000000	104.30168200000000	-19.15558700000000	0.37058500000000	0.00000000000000	0.06701600000000	-64.62634500000000	766.57100500000001	-52.25332100000000	0.12290100000000	0.00000000000000	-0.10758700000000	0.00000000000000	-15.20116600000000	0.00000000000000	0.00000000000000	-24.76184500000000	0.00000000000000	
9.09663800000000	-6.48081400000000	110.40654200000000	-19.13272200000000	0.37330900000000	0.00000000000000	0.06751500000000	-65.24763200000000	762.72762100000000	-51.59557700000000	0.12221600000000	0.00000000000000	-0.10743000000000	0.00000000000000	-15.32550500000000	0.00000000000000	0.00000000000000	-24.69104800000000	0.00000000000000	
9.09830000000000	-5.49515000000000	116.57060799999999	-19.02981700000000	0.37585500000000	0.00000000000000	0.06799600000000	-65.87062700000000	758.73401000000001	-50.91203600000000	0.12153400000000	0.00000000000000	-0.10726800000000	0.00000000000000	-15.39247900000000	0.00000000000000	0.00000000000000	-24.61864300000000	0.00000000000000	
9.09996400000000	-4.44038000000000	122.83747200000001	-18.86446900000000	0.37823900000000	0.00000000000000	0.06846000000000	-66.49405600000000	754.58815900000002	-50.20282800000000	0.12085600000000	0.00000000000000	-0.10710000000000	0.00000000000000	-15.41534500000000	0.00000000000000	0.00000000000000	-24.54442100000000	0.00000000000000	
9.10163100000000	-3.33014000000000	129.24440000000001	-18.65119200000000	0.38047700000000	0.00000000000000	0.06890900000000	-67.11655900000000	750.28809600000000	-49.46813400000000	0.12018100000000	0.00000000000000	-0.10692700000000	0.00000000000000	-15.40514900000000	0.00000000000000	0.00000000000000	-24.46816200000000	0.00000000000000	
